{"title":"Scre4m (Scream 4) - CamRip","uid":6325311,"size":1471734848,"categoryP":"video","categoryS":"movies","magnet":"?xt=urn:btih:37cbf2bc815de680c42bab853328a69d767dbf71&amp;dn=Scre4m+%28Scream+4%29+-+CamRip&amp;tr=udp%3A%2F%2Ftracker.openbittorrent.com%3A80&amp;tr=udp%3A%2F%2Fopen.demonii.com%3A1337&amp;tr=udp%3A%2F%2Ftracker.coppersurfer.tk%3A6969&amp;tr=udp%3A%2F%2Fexodus.desync.com%3A6969","seeders":0,"leechers":0,"uploader":"DisneyRicky","files":1,"time":1303092403,"description":"Rating.......:7.5/10                             \nVideo Codec.......: XVID                                         Date......:16/04/11\nAudio Codec.......:MP3                                           Date......:15/04/11\nAudio Bitrate.....:128                                              Runtime.......:1h 39mn\nSubtitles.........:NIL                                                 Language..........:ENGLISH\nResolution...... 704 x 288                                      \n\n\nDETAILS:\n\nVideo\nID                               : 0\nFormat                           : MPEG-4 Visual\nFormat profile                   : Advanced Simple@L5\nFormat settings, BVOP            : 2\nFormat settings, QPel            : No\nFormat settings, GMC             : No warppoints\nFormat settings, Matrix          : Default (MPEG)\nMuxing mode                      : Packed bitstream\nCodec ID                         : XVID\nCodec ID/Hint                    : XviD\nDuration                         : 1h 39mn\nBit rate                         : 1 838 Kbps\nWidth                            : 704 pixels\nHeight                           : 288 pixels\nDisplay aspect ratio             : 2.40:1\nFrame rate                       : 25.000 fps\nColor space                      : YUV\nChroma subsampling               : 4:2:0\nBit depth                        : 8 bits\nScan type                        : Progressive\nCompression mode                 : Lossy\nBits/(Pixel*Frame)               : 0.363\nStream size                      : 1.28 GiB (93%)\nWriting library                  : XviD 61\n\nAudio\nID                               : 1\nFormat                           : MPEG Audio\nFormat version                   : Version 1\nFormat profile                   : Layer 3\nCodec ID                         : 55\nCodec ID/Hint                    : MP3\nDuration                         : 1h 39mn\nBit rate mode                    : Constant\nBit rate                         : 128 Kbps\nChannel(s)                       : 2 channels\nSampling rate                    : 44.1 KHz\nCompression mode                 : Lossy\nStream size                      : 90.9 MiB (6%)\nAlignment                        : Split accross interleaves\nInterleave, duration             : 40 ms (1.00 video frame)\nInterleave, preload duration     : 500 ms","torrent":{"xt":"urn:btih:37cbf2bc815de680c42bab853328a69d767dbf71","amp;dn":"Scre4m+%28Scream+4%29+-+CamRip","amp;tr":["udp%3A%2F%2Ftracker.openbittorrent.com%3A80","udp%3A%2F%2Fopen.demonii.com%3A1337","udp%3A%2F%2Ftracker.coppersurfer.tk%3A6969","udp%3A%2F%2Fexodus.desync.com%3A6969"],"infoHash":"37cbf2bc815de680c42bab853328a69d767dbf71","infoHashBuffer":{"type":"Buffer","data":[55,203,242,188,129,93,230,128,196,43,171,133,51,40,166,157,118,125,191,113]},"announce":[],"urlList":[]}}